<svg xmlns="http://www.w3.org/2000/svg" xmlns:xlink="http://www.w3.org/1999/xlink" width="100" zoomAndPan="magnify" viewBox="0 0 75 74.999997" height="100" preserveAspectRatio="xMidYMid meet" version="1.0"><defs><g/></defs><g fill="#b35160" fill-opacity="1"><g transform="translate(0.0000015, 65.706418)"><g><path d="M 56.699219 -45.671875 C 57.148438 -45.222656 57.449219 -45.148438 57.972656 -45.523438 L 63.898438 -50.097656 C 64.421875 -50.472656 64.421875 -51.222656 63.972656 -51.597656 L 60.597656 -55.046875 C 60.148438 -55.5 59.472656 -55.421875 59.023438 -54.898438 L 54.449219 -49.046875 C 54.074219 -48.523438 54.148438 -48.222656 54.671875 -47.699219 Z M 34.949219 -54.972656 C 35.023438 -54.375 35.324219 -54.222656 36 -54.222656 L 38.925781 -54.222656 C 39.523438 -54.222656 39.75 -54.375 39.898438 -54.972656 L 40.875 -62.398438 C 40.949219 -63.074219 40.5 -63.597656 39.898438 -63.597656 L 34.949219 -63.597656 C 34.347656 -63.597656 33.898438 -63.074219 34.050781 -62.398438 Z M 16.949219 -45.449219 C 17.472656 -45.074219 17.699219 -45.148438 18.222656 -45.597656 L 20.324219 -47.699219 C 20.773438 -48.148438 20.773438 -48.375 20.398438 -48.898438 L 15.898438 -54.898438 C 15.523438 -55.347656 14.773438 -55.421875 14.324219 -54.972656 L 10.875 -51.523438 C 10.425781 -51.074219 10.5 -50.324219 11.023438 -50.023438 Z M 11.773438 -29.847656 C 11.773438 -30.523438 11.625 -30.75 10.875 -30.824219 L 3.523438 -31.875 C 2.925781 -31.949219 2.398438 -31.425781 2.398438 -30.824219 L 2.398438 -25.949219 C 2.398438 -25.347656 2.925781 -24.824219 3.523438 -24.972656 L 10.875 -25.949219 C 11.625 -26.023438 11.773438 -26.25 11.773438 -27 Z M 18.300781 -11.25 C 17.847656 -11.699219 17.550781 -11.773438 17.023438 -11.324219 L 11.101562 -6.898438 C 10.574219 -6.449219 10.574219 -5.773438 11.023438 -5.324219 L 14.472656 -1.875 C 14.925781 -1.425781 15.597656 -1.425781 15.972656 -2.023438 L 20.472656 -7.875 C 20.925781 -8.398438 20.847656 -8.699219 20.324219 -9.226562 Z M 40.050781 -1.875 C 39.972656 -2.550781 39.675781 -2.699219 39 -2.699219 L 36.074219 -2.699219 C 35.472656 -2.699219 35.25 -2.550781 35.023438 -1.875 L 34.125 5.476562 C 34.050781 6.074219 34.5 6.675781 35.175781 6.675781 L 39.972656 6.675781 C 40.574219 6.675781 41.023438 6.074219 40.949219 5.476562 Z M 37.5 -49.949219 C 25.648438 -49.949219 16.050781 -40.347656 16.050781 -28.5 C 16.050781 -16.648438 25.648438 -7.050781 37.5 -7.050781 C 49.347656 -7.050781 58.949219 -16.648438 58.949219 -28.5 C 58.949219 -40.347656 49.347656 -49.949219 37.5 -49.949219 Z M 58.125 -11.398438 C 57.523438 -11.851562 57.296875 -11.851562 56.773438 -11.324219 L 54.671875 -9.226562 C 54.222656 -8.851562 54.222656 -8.550781 54.597656 -7.949219 L 59.097656 -2.101562 C 59.472656 -1.574219 60.222656 -1.5 60.671875 -1.949219 L 64.046875 -5.324219 C 64.5 -5.773438 64.421875 -6.523438 63.972656 -6.898438 Z M 64.046875 -30.972656 C 63.375 -30.898438 63.222656 -30.675781 63.222656 -30 L 63.222656 -27.074219 C 63.222656 -26.398438 63.375 -26.175781 64.046875 -26.023438 L 71.472656 -25.050781 C 72.074219 -24.972656 72.597656 -25.5 72.597656 -26.097656 L 72.597656 -30.898438 C 72.597656 -31.574219 72.074219 -32.023438 71.472656 -31.949219 Z M 64.046875 -30.972656 "/></g></g></g></svg>