<svg xmlns="http://www.w3.org/2000/svg" xmlns:xlink="http://www.w3.org/1999/xlink" width="1000" zoomAndPan="magnify" viewBox="0 0 750 149.999998" height="200" preserveAspectRatio="xMidYMid meet" version="1.0"><defs><g/></defs><g fill="#b35160" fill-opacity="1"><g transform="translate(0.00000625, 125.426386)"><g><path d="M 102.804688 -82.816406 C 103.621094 -82 104.164062 -81.863281 105.117188 -82.542969 L 115.859375 -90.839844 C 116.8125 -91.519531 116.8125 -92.878906 115.996094 -93.558594 L 109.878906 -99.8125 C 109.0625 -100.628906 107.835938 -100.492188 107.019531 -99.542969 L 98.726562 -88.933594 C 98.046875 -87.984375 98.183594 -87.4375 99.132812 -86.488281 Z M 63.371094 -99.679688 C 63.503906 -98.589844 64.050781 -98.316406 65.273438 -98.316406 L 70.578125 -98.316406 C 71.664062 -98.316406 72.074219 -98.589844 72.34375 -99.679688 L 74.113281 -113.140625 C 74.25 -114.363281 73.433594 -115.316406 72.34375 -115.316406 L 63.371094 -115.316406 C 62.28125 -115.316406 61.464844 -114.363281 61.738281 -113.140625 Z M 30.734375 -82.40625 C 31.683594 -81.726562 32.09375 -81.863281 33.042969 -82.679688 L 36.851562 -86.488281 C 37.667969 -87.304688 37.667969 -87.710938 36.988281 -88.664062 L 28.828125 -99.542969 C 28.148438 -100.359375 26.789062 -100.492188 25.972656 -99.679688 L 19.71875 -93.421875 C 18.902344 -92.605469 19.039062 -91.246094 19.988281 -90.703125 Z M 21.351562 -54.121094 C 21.351562 -55.347656 21.078125 -55.753906 19.71875 -55.890625 L 6.390625 -57.792969 C 5.304688 -57.929688 4.351562 -56.976562 4.351562 -55.890625 L 4.351562 -47.050781 C 4.351562 -45.964844 5.304688 -45.011719 6.390625 -45.285156 L 19.71875 -47.050781 C 21.078125 -47.1875 21.351562 -47.59375 21.351562 -48.957031 Z M 33.179688 -20.398438 C 32.363281 -21.214844 31.820312 -21.351562 30.867188 -20.535156 L 20.125 -12.511719 C 19.175781 -11.695312 19.175781 -10.472656 19.988281 -9.65625 L 26.246094 -3.398438 C 27.0625 -2.582031 28.285156 -2.582031 28.964844 -3.671875 L 37.125 -14.277344 C 37.941406 -15.230469 37.804688 -15.773438 36.851562 -16.726562 Z M 72.617188 -3.398438 C 72.480469 -4.625 71.9375 -4.894531 70.714844 -4.894531 L 65.410156 -4.894531 C 64.320312 -4.894531 63.914062 -4.625 63.503906 -3.398438 L 61.875 9.925781 C 61.738281 11.015625 62.554688 12.101562 63.777344 12.101562 L 72.480469 12.101562 C 73.570312 12.101562 74.382812 11.015625 74.25 9.925781 Z M 67.992188 -90.566406 C 46.507812 -90.566406 29.101562 -73.160156 29.101562 -51.675781 C 29.101562 -30.1875 46.507812 -12.78125 67.992188 -12.78125 C 89.480469 -12.78125 106.886719 -30.1875 106.886719 -51.675781 C 106.886719 -73.160156 89.480469 -90.566406 67.992188 -90.566406 Z M 105.390625 -20.671875 C 104.300781 -21.484375 103.894531 -21.484375 102.941406 -20.535156 L 99.132812 -16.726562 C 98.316406 -16.046875 98.316406 -15.503906 99 -14.414062 L 107.15625 -3.808594 C 107.835938 -2.855469 109.195312 -2.71875 110.011719 -3.535156 L 116.132812 -9.65625 C 116.949219 -10.472656 116.8125 -11.832031 115.996094 -12.511719 Z M 116.132812 -56.164062 C 114.910156 -56.027344 114.636719 -55.617188 114.636719 -54.394531 L 114.636719 -49.089844 C 114.636719 -47.867188 114.910156 -47.460938 116.132812 -47.1875 L 129.59375 -45.417969 C 130.683594 -45.285156 131.636719 -46.234375 131.636719 -47.324219 L 131.636719 -56.027344 C 131.636719 -57.25 130.683594 -58.066406 129.59375 -57.929688 Z M 116.132812 -56.164062 "/></g></g></g><g fill="#b35160" fill-opacity="1"><g transform="translate(135.982058, 125.426386)"><g/></g></g><g fill="#b35160" fill-opacity="1"><g transform="translate(167.325962, 125.426386)"><g><path d="M 12.984375 -98.3125 L 74.25 -98.3125 L 74.171875 -87.296875 L 25.90625 -87.296875 L 25.90625 -54.796875 L 69.28125 -54.796875 L 69.28125 -43.921875 L 25.90625 -43.921875 L 25.90625 0 L 12.984375 0 Z M 12.984375 -98.3125 "/></g></g></g><g fill="#b35160" fill-opacity="1"><g transform="translate(248.099411, 125.426386)"><g><path d="M 13.046875 -98.3125 L 25.90625 -98.3125 L 25.90625 -11.28125 L 72.34375 -11.28125 L 72.34375 0 L 12.984375 0 Z M 13.046875 -98.3125 "/></g></g></g><g fill="#b35160" fill-opacity="1"><g transform="translate(326.629155, 125.426386)"><g><path d="M 83.296875 0 L 69.96875 0 L 52.015625 -42.359375 L 25.5625 -42.359375 L 25.5625 0 L 12.984375 0 L 12.984375 -98.3125 L 51.0625 -98.3125 C 58.132812 -98.3125 64.050781 -97.234375 68.8125 -95.078125 C 73.570312 -92.929688 77.128906 -89.851562 79.484375 -85.84375 C 81.835938 -81.832031 83.015625 -77.035156 83.015625 -71.453125 C 83.015625 -66.109375 82.070312 -61.664062 80.1875 -58.125 C 78.3125 -54.59375 75.921875 -51.75 73.015625 -49.59375 C 70.117188 -47.445312 67.109375 -45.785156 63.984375 -44.609375 Z M 46.984375 -52.765625 C 54.367188 -52.765625 60.078125 -54.269531 64.109375 -57.28125 C 68.148438 -60.300781 70.171875 -64.78125 70.171875 -70.71875 C 70.171875 -76.519531 68.367188 -80.859375 64.765625 -83.734375 C 61.160156 -86.609375 56.226562 -88.046875 49.96875 -88.046875 L 25.5625 -88.046875 L 25.5625 -52.765625 Z M 46.984375 -52.765625 "/></g></g></g><g fill="#b35160" fill-opacity="1"><g transform="translate(418.621129, 125.426386)"><g/></g></g><g fill="#b35160" fill-opacity="1"><g transform="translate(449.965021, 125.426386)"><g><path d="M 49.15625 -99.671875 C 56.09375 -99.671875 62.234375 -98.234375 67.578125 -95.359375 C 72.929688 -92.484375 77.238281 -88.640625 80.5 -83.828125 C 83.757812 -79.023438 85.6875 -73.75 86.28125 -68 L 72.890625 -68 C 72.160156 -71.84375 70.773438 -75.328125 68.734375 -78.453125 C 66.703125 -81.585938 64.03125 -84.082031 60.71875 -85.9375 C 57.40625 -87.800781 53.4375 -88.734375 48.8125 -88.734375 C 42.875 -88.734375 37.851562 -87.335938 33.75 -84.546875 C 29.65625 -81.753906 26.550781 -77.457031 24.4375 -71.65625 C 22.332031 -65.851562 21.28125 -58.421875 21.28125 -49.359375 C 21.28125 -35.671875 23.625 -25.617188 28.3125 -19.203125 C 33.007812 -12.796875 39.84375 -9.59375 48.8125 -9.59375 C 53.4375 -9.59375 57.40625 -10.566406 60.71875 -12.515625 C 64.03125 -14.460938 66.703125 -17.066406 68.734375 -20.328125 C 70.773438 -23.585938 72.160156 -27.125 72.890625 -30.9375 L 86.28125 -30.9375 C 85.78125 -26.769531 84.65625 -22.742188 82.90625 -18.859375 C 81.164062 -14.984375 78.773438 -11.523438 75.734375 -8.484375 C 72.703125 -5.453125 68.972656 -3.050781 64.546875 -1.28125 C 60.128906 0.476562 55 1.359375 49.15625 1.359375 C 40.320312 1.359375 32.785156 -0.65625 26.546875 -4.6875 C 20.316406 -8.726562 15.554688 -14.53125 12.265625 -22.09375 C 8.984375 -29.664062 7.34375 -38.800781 7.34375 -49.5 C 7.34375 -60.144531 8.972656 -69.207031 12.234375 -76.6875 C 15.503906 -84.164062 20.253906 -89.863281 26.484375 -93.78125 C 32.710938 -97.707031 40.269531 -99.671875 49.15625 -99.671875 Z M 49.15625 -99.671875 "/></g></g></g><g fill="#b35160" fill-opacity="1"><g transform="translate(543.588784, 125.426386)"><g><path d="M 10.40625 0 L 10.40625 -101.03125 L 22.640625 -101.03125 L 22.640625 -59.96875 C 23.816406 -61.914062 25.398438 -63.738281 27.390625 -65.4375 C 29.390625 -67.144531 31.816406 -68.53125 34.671875 -69.59375 C 37.523438 -70.65625 40.835938 -71.1875 44.609375 -71.1875 C 49.179688 -71.1875 53.328125 -70.335938 57.046875 -68.640625 C 60.765625 -66.941406 63.707031 -64.523438 65.875 -61.390625 C 68.050781 -58.265625 69.140625 -54.550781 69.140625 -50.25 L 69.140625 0 L 56.5625 0 L 56.5625 -47.734375 C 56.5625 -51.941406 55.125 -55.191406 52.25 -57.484375 C 49.375 -59.773438 45.625 -60.921875 41 -60.921875 C 37.875 -60.921875 34.925781 -60.410156 32.15625 -59.390625 C 29.394531 -58.367188 27.160156 -56.828125 25.453125 -54.765625 C 23.753906 -52.703125 22.90625 -50.085938 22.90625 -46.921875 L 22.90625 0 Z M 10.40625 0 "/></g></g></g><g fill="#b35160" fill-opacity="1"><g transform="translate(621.982526, 125.426386)"><g><path d="M 29.84375 1.359375 C 25.3125 1.359375 21.300781 0.554688 17.8125 -1.046875 C 14.320312 -2.660156 11.585938 -4.984375 9.609375 -8.015625 C 7.640625 -11.054688 6.65625 -14.726562 6.65625 -19.03125 C 6.65625 -26.832031 9.375 -32.632812 14.8125 -36.4375 C 20.257812 -40.25 28.988281 -42.289062 41 -42.5625 L 53.578125 -42.90625 L 53.578125 -48.40625 C 53.578125 -52.71875 52.285156 -56.128906 49.703125 -58.640625 C 47.117188 -61.160156 43.109375 -62.421875 37.671875 -62.421875 C 33.628906 -62.367188 30.078125 -61.414062 27.015625 -59.5625 C 23.960938 -57.707031 21.984375 -54.671875 21.078125 -50.453125 L 10 -50.453125 C 10.269531 -55.023438 11.5625 -58.882812 13.875 -62.03125 C 16.1875 -65.1875 19.414062 -67.578125 23.5625 -69.203125 C 27.707031 -70.835938 32.613281 -71.65625 38.28125 -71.65625 C 44.394531 -71.65625 49.476562 -70.796875 53.53125 -69.078125 C 57.59375 -67.359375 60.632812 -64.820312 62.65625 -61.46875 C 64.675781 -58.113281 65.6875 -53.988281 65.6875 -49.09375 L 65.6875 0 L 54.9375 0 L 54.046875 -13.1875 C 51.328125 -7.707031 47.867188 -3.910156 43.671875 -1.796875 C 39.484375 0.304688 34.875 1.359375 29.84375 1.359375 Z M 33.65625 -7.6875 C 36.007812 -7.6875 38.351562 -8.113281 40.6875 -8.96875 C 43.019531 -9.832031 45.160156 -11 47.109375 -12.46875 C 49.066406 -13.945312 50.625 -15.601562 51.78125 -17.4375 C 52.9375 -19.269531 53.535156 -21.164062 53.578125 -23.125 L 53.578125 -35.15625 L 43.109375 -34.953125 C 37.753906 -34.859375 33.273438 -34.3125 29.671875 -33.3125 C 26.066406 -32.320312 23.367188 -30.757812 21.578125 -28.625 C 19.796875 -26.488281 18.90625 -23.703125 18.90625 -20.265625 C 18.90625 -16.316406 20.273438 -13.234375 23.015625 -11.015625 C 25.753906 -8.796875 29.300781 -7.6875 33.65625 -7.6875 Z M 33.65625 -7.6875 "/></g></g></g><g fill="#b35160" fill-opacity="1"><g transform="translate(698.744478, 125.426386)"><g><path d="M 47.046875 -61.125 L 31.203125 -61.125 L 31.203125 -17.40625 C 31.203125 -14.914062 31.460938 -13.09375 31.984375 -11.9375 C 32.503906 -10.78125 33.390625 -10.039062 34.640625 -9.71875 C 35.890625 -9.40625 37.601562 -9.25 39.78125 -9.25 L 47.453125 -9.25 L 47.453125 -0.8125 C 46.597656 -0.5 45.296875 -0.226562 43.546875 0 C 41.804688 0.226562 39.644531 0.34375 37.0625 0.34375 C 32.207031 0.34375 28.441406 -0.3125 25.765625 -1.625 C 23.085938 -2.945312 21.21875 -4.898438 20.15625 -7.484375 C 19.09375 -10.066406 18.5625 -13.238281 18.5625 -17 L 18.5625 -61.125 L 7.140625 -61.125 L 7.140625 -70.296875 L 18.90625 -70.296875 L 21.96875 -90.765625 L 31.203125 -90.765625 L 31.203125 -70.375 L 47.046875 -70.375 Z M 47.046875 -61.125 "/></g></g></g></svg>