<svg xmlns="http://www.w3.org/2000/svg" xmlns:xlink="http://www.w3.org/1999/xlink" width="1660" zoomAndPan="magnify" viewBox="0 0 1245 314.999992" height="420" preserveAspectRatio="xMidYMid meet" version="1.0"><defs><g/></defs><g fill="#b35160" fill-opacity="1"><g transform="translate(11.433685, 250.647672)"><g><path d="M 198.660156 -160.03125 C 200.234375 -158.453125 201.289062 -158.191406 203.125 -159.503906 L 223.886719 -175.535156 C 225.726562 -176.847656 225.726562 -179.476562 224.148438 -180.789062 L 212.324219 -192.878906 C 210.746094 -194.457031 208.382812 -194.191406 206.804688 -192.351562 L 190.777344 -171.855469 C 189.460938 -170.015625 189.726562 -168.964844 191.566406 -167.125 Z M 122.453125 -192.617188 C 122.71875 -190.511719 123.769531 -189.988281 126.132812 -189.988281 L 136.382812 -189.988281 C 138.484375 -189.988281 139.273438 -190.511719 139.796875 -192.617188 L 143.214844 -218.628906 C 143.476562 -220.996094 141.898438 -222.835938 139.796875 -222.835938 L 122.453125 -222.835938 C 120.351562 -222.835938 118.773438 -220.996094 119.300781 -218.628906 Z M 59.386719 -159.242188 C 61.226562 -157.929688 62.015625 -158.191406 63.855469 -159.769531 L 71.210938 -167.125 C 72.789062 -168.703125 72.789062 -169.492188 71.476562 -171.332031 L 55.707031 -192.351562 C 54.394531 -193.929688 51.765625 -194.191406 50.191406 -192.617188 L 38.101562 -180.527344 C 36.527344 -178.953125 36.789062 -176.324219 38.628906 -175.273438 Z M 41.257812 -104.585938 C 41.257812 -106.949219 40.730469 -107.738281 38.101562 -108 L 12.351562 -111.679688 C 10.25 -111.941406 8.410156 -110.105469 8.410156 -108 L 8.410156 -90.921875 C 8.410156 -88.820312 10.25 -86.980469 12.351562 -87.503906 L 38.101562 -90.921875 C 40.730469 -91.183594 41.257812 -91.972656 41.257812 -94.601562 Z M 64.117188 -39.417969 C 62.539062 -40.992188 61.488281 -41.257812 59.652344 -39.679688 L 38.890625 -24.175781 C 37.050781 -22.597656 37.050781 -20.234375 38.628906 -18.65625 L 50.714844 -6.570312 C 52.292969 -4.992188 54.65625 -4.992188 55.972656 -7.09375 L 71.738281 -27.589844 C 73.316406 -29.429688 73.050781 -30.480469 71.210938 -32.320312 Z M 140.324219 -6.570312 C 140.058594 -8.933594 139.007812 -9.460938 136.644531 -9.460938 L 126.394531 -9.460938 C 124.292969 -9.460938 123.503906 -8.933594 122.71875 -6.570312 L 119.5625 19.183594 C 119.300781 21.285156 120.878906 23.386719 123.242188 23.386719 L 140.058594 23.386719 C 142.164062 23.386719 143.738281 21.285156 143.476562 19.183594 Z M 131.386719 -175.007812 C 89.871094 -175.007812 56.234375 -141.375 56.234375 -99.855469 C 56.234375 -58.335938 89.871094 -24.699219 131.386719 -24.699219 C 172.90625 -24.699219 206.542969 -58.335938 206.542969 -99.855469 C 206.542969 -141.375 172.90625 -175.007812 131.386719 -175.007812 Z M 203.652344 -39.941406 C 201.550781 -41.519531 200.761719 -41.519531 198.921875 -39.679688 L 191.566406 -32.320312 C 189.988281 -31.007812 189.988281 -29.957031 191.300781 -27.855469 L 207.070312 -7.359375 C 208.382812 -5.519531 211.011719 -5.253906 212.585938 -6.832031 L 224.410156 -18.65625 C 225.988281 -20.234375 225.726562 -22.863281 224.148438 -24.175781 Z M 224.410156 -108.527344 C 222.046875 -108.265625 221.519531 -107.476562 221.519531 -105.109375 L 221.519531 -94.863281 C 221.519531 -92.496094 222.046875 -91.710938 224.410156 -91.183594 L 250.425781 -87.769531 C 252.527344 -87.503906 254.367188 -89.34375 254.367188 -91.445312 L 254.367188 -108.265625 C 254.367188 -110.628906 252.527344 -112.207031 250.425781 -111.941406 Z M 224.410156 -108.527344 "/></g></g></g><g fill="#b35160" fill-opacity="1"><g transform="translate(274.198378, 250.647672)"><g><path d="M 14.453125 0 L 14.453125 -31.015625 L 43.359375 -31.015625 L 43.359375 0 Z M 14.453125 0 "/></g></g></g><g fill="#b35160" fill-opacity="1"><g transform="translate(333.451737, 250.647672)"><g><path d="M 96.828125 -135.859375 L 96.828125 -118.125 L 63.859375 -118.125 L 63.859375 0 L 39.421875 0 L 39.421875 -118.125 L 10.78125 -118.125 L 10.78125 -135.859375 L 39.421875 -135.859375 L 39.421875 -156.875 C 39.421875 -167.65625 42.175781 -175.867188 47.6875 -181.515625 C 53.207031 -187.160156 61.441406 -189.984375 72.390625 -189.984375 L 98.015625 -189.984375 L 98.15625 -172.78125 L 77.78125 -172.78125 C 72.257812 -172.78125 68.492188 -171.289062 66.484375 -168.3125 C 64.472656 -165.332031 63.46875 -160.820312 63.46875 -154.78125 L 63.46875 -135.859375 Z M 96.828125 -135.859375 "/></g></g></g><g fill="#b35160" fill-opacity="1"><g transform="translate(440.134037, 250.647672)"><g><path d="M 54.390625 1.703125 C 47.035156 1.703125 41.101562 0.695312 36.59375 -1.3125 C 32.082031 -3.320312 28.617188 -6.035156 26.203125 -9.453125 C 23.796875 -12.867188 22.175781 -16.789062 21.34375 -21.21875 C 20.519531 -25.644531 20.109375 -30.222656 20.109375 -34.953125 L 20.109375 -195.25 L 44.015625 -195.25 L 44.015625 -37.3125 C 44.015625 -30.476562 45.347656 -25.351562 48.015625 -21.9375 C 50.691406 -18.519531 54.4375 -16.640625 59.25 -16.296875 L 66.609375 -16.15625 L 66.609375 -0.390625 C 64.597656 0.222656 62.5 0.722656 60.3125 1.109375 C 58.125 1.503906 56.148438 1.703125 54.390625 1.703125 Z M 54.390625 1.703125 "/></g></g></g><g fill="#b35160" fill-opacity="1"><g transform="translate(518.306431, 250.647672)"><g><path d="M 20.109375 0 L 20.109375 -135.859375 L 43.234375 -135.859375 L 43.234375 -109.71875 C 45.503906 -116.195312 48.695312 -121.554688 52.8125 -125.796875 C 56.9375 -130.046875 61.644531 -133.222656 66.9375 -135.328125 C 72.238281 -137.429688 77.738281 -138.484375 83.4375 -138.484375 C 85.445312 -138.484375 87.414062 -138.351562 89.34375 -138.09375 C 91.269531 -137.832031 92.757812 -137.394531 93.8125 -136.78125 L 93.8125 -113.265625 C 92.5 -113.867188 90.8125 -114.28125 88.75 -114.5 C 86.695312 -114.71875 84.96875 -114.828125 83.5625 -114.828125 C 78.132812 -115.179688 73.054688 -114.851562 68.328125 -113.84375 C 63.597656 -112.84375 59.4375 -111.113281 55.84375 -108.65625 C 52.25 -106.207031 49.421875 -102.988281 47.359375 -99 C 45.304688 -95.019531 44.28125 -90.179688 44.28125 -84.484375 L 44.28125 0 Z M 20.109375 0 "/></g></g></g><g fill="#b35160" fill-opacity="1"><g transform="translate(620.127608, 250.647672)"><g/></g></g><g fill="#b35160" fill-opacity="1"><g transform="translate(680.694779, 250.647672)"><g><path d="M 74.234375 -138.484375 C 83.953125 -138.484375 92.707031 -136.617188 100.5 -132.890625 C 108.300781 -129.171875 114.675781 -123.894531 119.625 -117.0625 C 124.570312 -110.238281 127.660156 -102.179688 128.890625 -92.890625 L 107.34375 -92.890625 C 106.550781 -97.617188 104.734375 -101.953125 101.890625 -105.890625 C 99.046875 -109.835938 95.300781 -112.992188 90.65625 -115.359375 C 86.019531 -117.722656 80.585938 -118.90625 74.359375 -118.90625 C 62.710938 -118.90625 53.253906 -114.703125 45.984375 -106.296875 C 38.710938 -97.890625 35.078125 -85.015625 35.078125 -67.671875 C 35.078125 -51.984375 38.425781 -39.429688 45.125 -30.015625 C 51.832031 -20.597656 61.710938 -15.890625 74.765625 -15.890625 C 80.984375 -15.890625 86.390625 -17.09375 90.984375 -19.5 C 95.585938 -21.914062 99.289062 -25.113281 102.09375 -29.09375 C 104.894531 -33.082031 106.691406 -37.351562 107.484375 -41.90625 L 128.625 -41.90625 C 127.488281 -32.800781 124.421875 -24.921875 119.421875 -18.265625 C 114.429688 -11.609375 108.0625 -6.460938 100.3125 -2.828125 C 92.5625 0.804688 83.867188 2.625 74.234375 2.625 C 62.054688 2.625 51.257812 -0.046875 41.84375 -5.390625 C 32.425781 -10.734375 25.046875 -18.613281 19.703125 -29.03125 C 14.359375 -39.457031 11.6875 -52.25 11.6875 -67.40625 C 11.6875 -81.59375 14.117188 -94.003906 18.984375 -104.640625 C 23.847656 -115.285156 30.941406 -123.585938 40.265625 -129.546875 C 49.597656 -135.503906 60.921875 -138.484375 74.234375 -138.484375 Z M 74.234375 -138.484375 "/></g></g></g><g fill="#b35160" fill-opacity="1"><g transform="translate(822.456099, 250.647672)"><g><path d="M 20.109375 0 L 20.109375 -195.25 L 43.75 -195.25 L 43.75 -115.890625 C 46.03125 -119.648438 49.097656 -123.171875 52.953125 -126.453125 C 56.804688 -129.742188 61.488281 -132.414062 67 -134.46875 C 72.519531 -136.53125 78.914062 -137.5625 86.1875 -137.5625 C 95.039062 -137.5625 103.054688 -135.921875 110.234375 -132.640625 C 117.421875 -129.359375 123.113281 -124.691406 127.3125 -118.640625 C 131.519531 -112.597656 133.625 -105.414062 133.625 -97.09375 L 133.625 0 L 109.3125 0 L 109.3125 -92.234375 C 109.3125 -100.378906 106.53125 -106.660156 100.96875 -111.078125 C 95.40625 -115.503906 88.160156 -117.71875 79.234375 -117.71875 C 73.179688 -117.71875 67.484375 -116.734375 62.140625 -114.765625 C 56.804688 -112.796875 52.492188 -109.816406 49.203125 -105.828125 C 45.921875 -101.847656 44.28125 -96.789062 44.28125 -90.65625 L 44.28125 0 Z M 20.109375 0 "/></g></g></g><g fill="#b35160" fill-opacity="1"><g transform="translate(973.939714, 250.647672)"><g><path d="M 57.6875 2.625 C 48.925781 2.625 41.171875 1.070312 34.421875 -2.03125 C 27.679688 -5.144531 22.40625 -9.632812 18.59375 -15.5 C 14.78125 -21.375 12.875 -28.472656 12.875 -36.796875 C 12.875 -51.859375 18.128906 -63.066406 28.640625 -70.421875 C 39.148438 -77.785156 56.015625 -81.726562 79.234375 -82.25 L 103.53125 -82.90625 L 103.53125 -93.546875 C 103.53125 -101.867188 101.035156 -108.457031 96.046875 -113.3125 C 91.054688 -118.175781 83.304688 -120.609375 72.796875 -120.609375 C 64.992188 -120.523438 58.132812 -118.6875 52.21875 -115.09375 C 46.3125 -111.507812 42.484375 -105.640625 40.734375 -97.484375 L 19.3125 -97.484375 C 19.84375 -106.335938 22.335938 -113.804688 26.796875 -119.890625 C 31.265625 -125.984375 37.503906 -130.601562 45.515625 -133.75 C 53.535156 -136.90625 63.019531 -138.484375 73.96875 -138.484375 C 85.789062 -138.484375 95.625 -136.816406 103.46875 -133.484375 C 111.3125 -130.160156 117.179688 -125.253906 121.078125 -118.765625 C 124.972656 -112.285156 126.921875 -104.316406 126.921875 -94.859375 L 126.921875 0 L 106.15625 0 L 104.453125 -25.484375 C 99.203125 -14.890625 92.523438 -7.554688 84.421875 -3.484375 C 76.316406 0.585938 67.40625 2.625 57.6875 2.625 Z M 65.03125 -14.84375 C 69.59375 -14.84375 74.128906 -15.675781 78.640625 -17.34375 C 83.148438 -19.007812 87.285156 -21.265625 91.046875 -24.109375 C 94.816406 -26.953125 97.816406 -30.144531 100.046875 -33.6875 C 102.285156 -37.238281 103.445312 -40.898438 103.53125 -44.671875 L 103.53125 -67.921875 L 83.296875 -67.53125 C 72.960938 -67.351562 64.3125 -66.300781 57.34375 -64.375 C 50.382812 -62.445312 45.175781 -59.425781 41.71875 -55.3125 C 38.257812 -51.195312 36.53125 -45.8125 36.53125 -39.15625 C 36.53125 -31.53125 39.175781 -25.570312 44.46875 -21.28125 C 49.769531 -16.988281 56.625 -14.84375 65.03125 -14.84375 Z M 65.03125 -14.84375 "/></g></g></g><g fill="#b35160" fill-opacity="1"><g transform="translate(1122.2702, 250.647672)"><g><path d="M 90.921875 -118.125 L 60.3125 -118.125 L 60.3125 -33.640625 C 60.3125 -28.816406 60.8125 -25.285156 61.8125 -23.046875 C 62.820312 -20.816406 64.53125 -19.394531 66.9375 -18.78125 C 69.351562 -18.175781 72.660156 -17.875 76.859375 -17.875 L 91.703125 -17.875 L 91.703125 -1.578125 C 90.046875 -0.960938 87.53125 -0.4375 84.15625 0 C 80.78125 0.4375 76.597656 0.65625 71.609375 0.65625 C 62.234375 0.65625 54.960938 -0.613281 49.796875 -3.15625 C 44.628906 -5.695312 41.015625 -9.460938 38.953125 -14.453125 C 36.898438 -19.441406 35.875 -25.570312 35.875 -32.84375 L 35.875 -118.125 L 13.796875 -118.125 L 13.796875 -135.859375 L 36.53125 -135.859375 L 42.4375 -175.40625 L 60.3125 -175.40625 L 60.3125 -135.984375 L 90.921875 -135.984375 Z M 90.921875 -118.125 "/></g></g></g></svg>